<svg xmlns="http://www.w3.org/2000/svg" viewBox="-40 -8 340 216" width="510" height="324" style="background:#fff"><polyline points="100,30 100,59" fill="none" stroke="#111" stroke-width="2"/><polyline points="100,71 100,100" fill="none" stroke="#111" stroke-width="2"/><g transform="translate(100,65) rotate(90)"><line x1="-6" y1="-14" x2="-6" y2="14" stroke="#111" stroke-width="2"/><line x1="6" y1="-7" x2="6" y2="7" stroke="#111" stroke-width="4"/></g><text x="86" y="64" font-size="15" text-anchor="middle" fill="#555" font-family="'Times New Roman',serif">+</text><text x="84" y="70" font-size="15" text-anchor="end" fill="#111" font-family="'Times New Roman',serif">12V</text><polyline points="160,30 160,43" fill="none" stroke="#111" stroke-width="2"/><polyline points="160,87 160,100" fill="none" stroke="#111" stroke-width="2"/><g transform="translate(160,65) rotate(90)"><polyline points="-22,0 -18,-6 -11,6 -4,-6 3,6 10,-6 17,6 22,0" fill="none" stroke="#111" stroke-width="2"/></g><text x="180" y="70" font-size="15" text-anchor="start" fill="#111" font-family="'Times New Roman',serif">12Ω</text><polyline points="100,30 160,30" fill="none" stroke="#111" stroke-width="2"/><polyline points="100,100 160,100" fill="none" stroke="#111" stroke-width="2"/><polyline points="160,30 173,30" fill="none" stroke="#111" stroke-width="2"/><polyline points="217,30 230,30" fill="none" stroke="#111" stroke-width="2"/><g transform="translate(195,30) rotate(0)"><polyline points="-22,0 -18,-6 -11,6 -4,-6 3,6 10,-6 17,6 22,0" fill="none" stroke="#111" stroke-width="2"/></g><text x="195" y="18" font-size="15" text-anchor="middle" fill="#111" font-family="'Times New Roman',serif">6Ω</text><circle cx="234" cy="30" r="4" fill="#fff" stroke="#111" stroke-width="1.6"/><text x="246" y="35" font-size="16" text-anchor="middle" fill="#111" font-style="italic" font-family="'Times New Roman',serif">a</text><polyline points="100,100 100,118" fill="none" stroke="#111" stroke-width="2"/><polyline points="100,162 100,180" fill="none" stroke="#111" stroke-width="2"/><g transform="translate(100,140) rotate(90)"><polyline points="-22,0 -18,-6 -11,6 -4,-6 3,6 10,-6 17,6 22,0" fill="none" stroke="#111" stroke-width="2"/></g><text x="86" y="145" font-size="15" text-anchor="end" fill="#111" font-family="'Times New Roman',serif">18Ω</text><polyline points="160,180 160,155" fill="none" stroke="#111" stroke-width="2"/><polyline points="160,125 160,100" fill="none" stroke="#111" stroke-width="2"/><g transform="translate(160,140) rotate(-90)"><circle r="15" fill="#fff" stroke="#111" stroke-width="2"/><line x1="-9" y1="0" x2="8" y2="0" stroke="#111" stroke-width="2"/><polygon points="10,0 3,-5 3,5" fill="#111"/></g><text x="180" y="145" font-size="15" text-anchor="start" fill="#111" font-family="'Times New Roman',serif">4A</text><polyline points="100,180 230,180" fill="none" stroke="#111" stroke-width="2"/><circle cx="234" cy="180" r="4" fill="#fff" stroke="#111" stroke-width="1.6"/><text x="246" y="185" font-size="16" text-anchor="middle" fill="#111" font-style="italic" font-family="'Times New Roman',serif">b</text><circle cx="160" cy="30" r="3.2" fill="#111"/><circle cx="100" cy="100" r="3.2" fill="#111"/><circle cx="160" cy="100" r="3.2" fill="#111"/><circle cx="160" cy="180" r="3.2" fill="#111"/></svg>