<svg xmlns="http://www.w3.org/2000/svg" viewBox="-40 -8 440 166" width="660" height="249" style="background:#fff"><polyline points="40,130 40,86" fill="none" stroke="#111" stroke-width="2"/><polyline points="40,74 40,30" fill="none" stroke="#111" stroke-width="2"/><g transform="translate(40,80) rotate(-90)"><line x1="6" y1="-14" x2="6" y2="14" stroke="#111" stroke-width="2"/><line x1="-6" y1="-7" x2="-6" y2="7" stroke="#111" stroke-width="4"/></g><text x="26" y="79" font-size="15" text-anchor="middle" fill="#555" font-family="'Times New Roman',serif">+</text><text x="24" y="85" font-size="15" text-anchor="end" fill="#111" font-family="'Times New Roman',serif">18V</text><polyline points="40,30 63,30" fill="none" stroke="#111" stroke-width="2"/><polyline points="107,30 130,30" fill="none" stroke="#111" stroke-width="2"/><g transform="translate(85,30) rotate(0)"><polyline points="-22,0 -18,-6 -11,6 -4,-6 3,6 10,-6 17,6 22,0" fill="none" stroke="#111" stroke-width="2"/></g><text x="85" y="18" font-size="15" text-anchor="middle" fill="#111" font-family="'Times New Roman',serif">12Ω</text><polyline points="130,30 130,58" fill="none" stroke="#111" stroke-width="2"/><polyline points="130,102 130,130" fill="none" stroke="#111" stroke-width="2"/><g transform="translate(130,80) rotate(90)"><polyline points="-22,0 -18,-6 -11,6 -4,-6 3,6 10,-6 17,6 22,0" fill="none" stroke="#111" stroke-width="2"/></g><text x="116" y="85" font-size="15" text-anchor="end" fill="#111" font-family="'Times New Roman',serif">6Ω</text><polyline points="130,30 170,30" fill="none" stroke="#111" stroke-width="2"/><circle cx="174" cy="30" r="4" fill="#fff" stroke="#111" stroke-width="1.6"/><text x="174" y="20" font-size="16" text-anchor="middle" fill="#111" font-style="italic" font-family="'Times New Roman',serif">a</text><text x="174" y="50" font-size="15" text-anchor="middle" fill="#555" font-family="'Times New Roman',serif">+</text><circle cx="214" cy="30" r="4" fill="#fff" stroke="#111" stroke-width="1.6"/><text x="214" y="20" font-size="16" text-anchor="middle" fill="#111" font-style="italic" font-family="'Times New Roman',serif">b</text><text x="214" y="50" font-size="15" text-anchor="middle" fill="#555" font-family="'Times New Roman',serif">−</text><polyline points="218,30 250,30" fill="none" stroke="#111" stroke-width="2"/><polyline points="250,30 250,58" fill="none" stroke="#111" stroke-width="2"/><polyline points="250,102 250,130" fill="none" stroke="#111" stroke-width="2"/><g transform="translate(250,80) rotate(90)"><polyline points="-22,0 -18,-6 -11,6 -4,-6 3,6 10,-6 17,6 22,0" fill="none" stroke="#111" stroke-width="2"/></g><text x="236" y="85" font-size="15" text-anchor="end" fill="#111" font-family="'Times New Roman',serif">6Ω</text><polyline points="250,30 268,30" fill="none" stroke="#111" stroke-width="2"/><polyline points="312,30 330,30" fill="none" stroke="#111" stroke-width="2"/><g transform="translate(290,30) rotate(0)"><polyline points="-22,0 -18,-6 -11,6 -4,-6 3,6 10,-6 17,6 22,0" fill="none" stroke="#111" stroke-width="2"/></g><text x="290" y="18" font-size="15" text-anchor="middle" fill="#111" font-family="'Times New Roman',serif">3Ω</text><polyline points="330,130 330,95" fill="none" stroke="#111" stroke-width="2"/><polyline points="330,65 330,30" fill="none" stroke="#111" stroke-width="2"/><g transform="translate(330,80) rotate(-90)"><circle r="15" fill="#fff" stroke="#111" stroke-width="2"/><line x1="-9" y1="0" x2="8" y2="0" stroke="#111" stroke-width="2"/><polygon points="10,0 3,-5 3,5" fill="#111"/></g><text x="350" y="85" font-size="15" text-anchor="start" fill="#111" font-family="'Times New Roman',serif">4A</text><polyline points="40,130 330,130" fill="none" stroke="#111" stroke-width="2"/><circle cx="130" cy="30" r="3.2" fill="#111"/><circle cx="130" cy="130" r="3.2" fill="#111"/><circle cx="250" cy="30" r="3.2" fill="#111"/><circle cx="250" cy="130" r="3.2" fill="#111"/></svg>