<svg xmlns="http://www.w3.org/2000/svg" viewBox="-40 -8 340 236" width="510" height="354" style="background:#fff"><polyline points="60,200 60,121" fill="none" stroke="#111" stroke-width="2"/><polyline points="60,109 60,30" fill="none" stroke="#111" stroke-width="2"/><g transform="translate(60,115) rotate(-90)"><line x1="6" y1="-14" x2="6" y2="14" stroke="#111" stroke-width="2"/><line x1="-6" y1="-7" x2="-6" y2="7" stroke="#111" stroke-width="4"/></g><text x="46" y="114" font-size="15" text-anchor="middle" fill="#555" font-family="'Times New Roman',serif">+</text><text x="44" y="120" font-size="15" text-anchor="end" fill="#111" font-style="italic" font-family="'Times New Roman',serif">Vs</text><line x1="76" y1="110" x2="76" y2="80" stroke="#666" stroke-width="1.6"/><polygon points="76,80 78.72592839616055,86.4474269580202 73.27407160383945,86.4474269580202" fill="#666"/><text x="88" y="100" font-size="15" text-anchor="start" fill="#444" font-style="italic" font-family="'Times New Roman',serif">Is</text><polyline points="60,30 118,30" fill="none" stroke="#111" stroke-width="2"/><polyline points="162,30 220,30" fill="none" stroke="#111" stroke-width="2"/><g transform="translate(140,30) rotate(0)"><polyline points="-22,0 -18,-6 -11,6 -4,-6 3,6 10,-6 17,6 22,0" fill="none" stroke="#111" stroke-width="2"/></g><text x="140" y="18" font-size="15" text-anchor="middle" fill="#111" font-family="'Times New Roman',serif">8kΩ</text><polyline points="220,30 220,50.5" fill="none" stroke="#111" stroke-width="2"/><polyline points="220,94.5 220,115" fill="none" stroke="#111" stroke-width="2"/><g transform="translate(220,72.5) rotate(90)"><polyline points="-22,0 -18,-6 -11,6 -4,-6 3,6 10,-6 17,6 22,0" fill="none" stroke="#111" stroke-width="2"/></g><text x="240" y="77.5" font-size="15" text-anchor="start" fill="#111" font-family="'Times New Roman',serif">10kΩ</text><text x="200" y="60" font-size="15" text-anchor="middle" fill="#555" font-family="'Times New Roman',serif">+</text><text x="200" y="80" font-size="15" text-anchor="end" fill="#111" font-style="italic" font-family="'Times New Roman',serif">V1</text><text x="200" y="100" font-size="15" text-anchor="middle" fill="#555" font-family="'Times New Roman',serif">−</text><polyline points="220,115 220,135.5" fill="none" stroke="#111" stroke-width="2"/><polyline points="220,179.5 220,200" fill="none" stroke="#111" stroke-width="2"/><g transform="translate(220,157.5) rotate(90)"><polyline points="-22,0 -18,-6 -11,6 -4,-6 3,6 10,-6 17,6 22,0" fill="none" stroke="#111" stroke-width="2"/></g><text x="240" y="162.5" font-size="15" text-anchor="start" fill="#111" font-style="italic" font-family="'Times New Roman',serif">R</text><polyline points="220,200 162,200" fill="none" stroke="#111" stroke-width="2"/><polyline points="118,200 60,200" fill="none" stroke="#111" stroke-width="2"/><g transform="translate(140,200) rotate(180)"><polyline points="-22,0 -18,-6 -11,6 -4,-6 3,6 10,-6 17,6 22,0" fill="none" stroke="#111" stroke-width="2"/></g><text x="140" y="222" font-size="15" text-anchor="middle" fill="#111" font-family="'Times New Roman',serif">12kΩ</text></svg>