<svg xmlns="http://www.w3.org/2000/svg" viewBox="-40 -8 420 226" width="630" height="339" style="background:#fff"><polyline points="50,30 230,30" fill="none" stroke="#111" stroke-width="2"/><rect x="230" y="18" width="60" height="24" fill="#fff" stroke="#111" stroke-width="2"/><text x="260" y="36" font-size="17" text-anchor="middle" fill="#111" font-family="'Times New Roman',serif">B</text><polyline points="290,30 320,30 320,80" fill="none" stroke="#111" stroke-width="2"/><rect x="308" y="80" width="24" height="50" fill="#fff" stroke="#111" stroke-width="2"/><text x="320" y="111" font-size="17" text-anchor="middle" fill="#111" font-family="'Times New Roman',serif">A</text><polyline points="320,130 320,180 290,180" fill="none" stroke="#111" stroke-width="2"/><rect x="230" y="168" width="60" height="24" fill="#fff" stroke="#111" stroke-width="2"/><text x="260" y="186" font-size="17" text-anchor="middle" fill="#111" font-family="'Times New Roman',serif">C</text><polyline points="230,180 50,180" fill="none" stroke="#111" stroke-width="2"/><polyline points="50,30 50,80" fill="none" stroke="#111" stroke-width="2"/><rect x="38" y="80" width="24" height="50" fill="#fff" stroke="#111" stroke-width="2"/><text x="50" y="111" font-size="17" text-anchor="middle" fill="#111" font-family="'Times New Roman',serif">E</text><polyline points="50,130 50,180" fill="none" stroke="#111" stroke-width="2"/><polyline points="140,30 140,80" fill="none" stroke="#111" stroke-width="2"/><rect x="128" y="80" width="24" height="50" fill="#fff" stroke="#111" stroke-width="2"/><text x="140" y="111" font-size="17" text-anchor="middle" fill="#111" font-family="'Times New Roman',serif">D</text><polyline points="140,130 140,180" fill="none" stroke="#111" stroke-width="2"/><text x="236" y="12" font-size="15" text-anchor="middle" fill="#555" font-family="'Times New Roman',serif">+</text><text x="260" y="10" font-size="15" text-anchor="middle" fill="#111" font-family="'Times New Roman',serif">6V</text><text x="284" y="12" font-size="15" text-anchor="middle" fill="#555" font-family="'Times New Roman',serif">−</text><text x="236" y="208" font-size="15" text-anchor="middle" fill="#555" font-family="'Times New Roman',serif">+</text><text x="260" y="210" font-size="15" text-anchor="middle" fill="#111" font-family="'Times New Roman',serif">10V</text><text x="284" y="208" font-size="15" text-anchor="middle" fill="#555" font-family="'Times New Roman',serif">−</text><text x="30" y="90" font-size="15" text-anchor="middle" fill="#555" font-family="'Times New Roman',serif">+</text><text x="28" y="110" font-size="15" text-anchor="end" fill="#111" font-family="'Times New Roman',serif">20V</text><text x="30" y="128" font-size="15" text-anchor="middle" fill="#555" font-family="'Times New Roman',serif">−</text><line x1="64" y1="40" x2="64" y2="66" stroke="#666" stroke-width="1.6"/><polygon points="64,66 61.274071603839445,59.552573041979805 66.72592839616055,59.552573041979805" fill="#666"/><text x="76" y="58" font-size="15" text-anchor="start" fill="#444" font-family="'Times New Roman',serif">4A</text><line x1="154" y1="140" x2="154" y2="166" stroke="#666" stroke-width="1.6"/><polygon points="154,166 151.27407160383945,159.5525730419798 156.72592839616055,159.5525730419798" fill="#666"/><text x="166" y="158" font-size="15" text-anchor="start" fill="#444" font-family="'Times New Roman',serif">6A</text><circle cx="140" cy="30" r="3.2" fill="#111"/><circle cx="140" cy="180" r="3.2" fill="#111"/></svg>