<svg xmlns="http://www.w3.org/2000/svg" viewBox="-40 -8 380 216" width="570" height="324" style="background:#fff"><polyline points="40,190 40,125" fill="none" stroke="#111" stroke-width="2"/><polyline points="40,95 40,30" fill="none" stroke="#111" stroke-width="2"/><g transform="translate(40,110) rotate(-90)"><circle r="15" fill="#fff" stroke="#111" stroke-width="2"/><line x1="-9" y1="0" x2="8" y2="0" stroke="#111" stroke-width="2"/><polygon points="10,0 3,-5 3,5" fill="#111"/></g><text x="18" y="115" font-size="15" text-anchor="end" fill="#111" font-family="'Times New Roman',serif">12A</text><polyline points="40,30 270,30" fill="none" stroke="#111" stroke-width="2"/><polyline points="160,30 160,48" fill="none" stroke="#111" stroke-width="2"/><polyline points="160,92 160,110" fill="none" stroke="#111" stroke-width="2"/><g transform="translate(160,70) rotate(90)"><polyline points="-22,0 -18,-6 -11,6 -4,-6 3,6 10,-6 17,6 22,0" fill="none" stroke="#111" stroke-width="2"/></g><text x="146" y="75" font-size="15" text-anchor="end" fill="#111" font-family="'Times New Roman',serif">3Ω</text><polyline points="160,110 160,144" fill="none" stroke="#111" stroke-width="2"/><polyline points="160,156 160,190" fill="none" stroke="#111" stroke-width="2"/><g transform="translate(160,150) rotate(90)"><line x1="-6" y1="-14" x2="-6" y2="14" stroke="#111" stroke-width="2"/><line x1="6" y1="-7" x2="6" y2="7" stroke="#111" stroke-width="4"/></g><text x="146" y="149" font-size="15" text-anchor="middle" fill="#555" font-family="'Times New Roman',serif">+</text><text x="144" y="155" font-size="15" text-anchor="end" fill="#111" font-family="'Times New Roman',serif">60V</text><polyline points="160,110 193,110" fill="none" stroke="#111" stroke-width="2"/><polyline points="237,110 270,110" fill="none" stroke="#111" stroke-width="2"/><g transform="translate(215,110) rotate(0)"><polyline points="-22,0 -18,-6 -11,6 -4,-6 3,6 10,-6 17,6 22,0" fill="none" stroke="#111" stroke-width="2"/></g><text x="215" y="98" font-size="15" text-anchor="middle" fill="#111" font-style="italic" font-family="'Times New Roman',serif">RL</text><polyline points="270,30 270,64" fill="none" stroke="#111" stroke-width="2"/><polyline points="270,76 270,110" fill="none" stroke="#111" stroke-width="2"/><g transform="translate(270,70) rotate(90)"><line x1="-6" y1="-14" x2="-6" y2="14" stroke="#111" stroke-width="2"/><line x1="6" y1="-7" x2="6" y2="7" stroke="#111" stroke-width="4"/></g><text x="256" y="69" font-size="15" text-anchor="middle" fill="#555" font-family="'Times New Roman',serif">+</text><text x="290" y="75" font-size="15" text-anchor="start" fill="#111" font-family="'Times New Roman',serif">30V</text><polyline points="270,110 270,128" fill="none" stroke="#111" stroke-width="2"/><polyline points="270,172 270,190" fill="none" stroke="#111" stroke-width="2"/><g transform="translate(270,150) rotate(90)"><polyline points="-22,0 -18,-6 -11,6 -4,-6 3,6 10,-6 17,6 22,0" fill="none" stroke="#111" stroke-width="2"/></g><text x="290" y="155" font-size="15" text-anchor="start" fill="#111" font-family="'Times New Roman',serif">6Ω</text><polyline points="40,190 270,190" fill="none" stroke="#111" stroke-width="2"/><circle cx="160" cy="30" r="3.2" fill="#111"/><circle cx="160" cy="110" r="3.2" fill="#111"/><circle cx="270" cy="110" r="3.2" fill="#111"/><circle cx="160" cy="190" r="3.2" fill="#111"/><text x="150" y="128" font-size="16" text-anchor="end" fill="#111" font-style="italic" font-family="'Times New Roman',serif">a</text><text x="282" y="128" font-size="16" text-anchor="start" fill="#111" font-style="italic" font-family="'Times New Roman',serif">b</text></svg>