<svg xmlns="http://www.w3.org/2000/svg" viewBox="-40 -8 410 266" width="615" height="399" style="background:#fff"><polyline points="200,30 170.13038225403722,61.52904095407182" fill="none" stroke="#111" stroke-width="2"/><polyline points="139.86961774596278,93.47095904592818 110,125" fill="none" stroke="#111" stroke-width="2"/><g transform="translate(155,77.5) rotate(133.45184230102205)"><polyline points="-22,0 -18,-6 -11,6 -4,-6 3,6 10,-6 17,6 22,0" fill="none" stroke="#111" stroke-width="2"/></g><text x="125" y="69.5" font-size="15" text-anchor="end" fill="#111" font-family="'Times New Roman',serif">R1=10kΩ</text><polyline points="200,30 229.86961774596278,61.52904095407182" fill="none" stroke="#111" stroke-width="2"/><polyline points="260.1303822540372,93.47095904592818 290,125" fill="none" stroke="#111" stroke-width="2"/><g transform="translate(245,77.5) rotate(46.548157698977974)"><polyline points="-22,0 -18,-6 -11,6 -4,-6 3,6 10,-6 17,6 22,0" fill="none" stroke="#111" stroke-width="2"/></g><text x="275" y="69.5" font-size="15" text-anchor="start" fill="#111" font-family="'Times New Roman',serif">R2=100kΩ</text><polyline points="110,125 139.86961774596278,156.5290409540718" fill="none" stroke="#111" stroke-width="2"/><polyline points="170.13038225403722,188.4709590459282 200,220" fill="none" stroke="#111" stroke-width="2"/><g transform="translate(155,172.5) rotate(46.548157698977974)"><polyline points="-22,0 -18,-6 -11,6 -4,-6 3,6 10,-6 17,6 22,0" fill="none" stroke="#111" stroke-width="2"/></g><text x="125" y="186.5" font-size="15" text-anchor="end" fill="#111" font-family="'Times New Roman',serif">R3=2kΩ</text><polyline points="290,125 260.1303822540372,156.5290409540718" fill="none" stroke="#111" stroke-width="2"/><polyline points="229.86961774596278,188.4709590459282 200,220" fill="none" stroke="#111" stroke-width="2"/><g transform="translate(245,172.5) rotate(133.45184230102205)"><polyline points="-22,0 -18,-6 -11,6 -4,-6 3,6 10,-6 17,6 22,0" fill="none" stroke="#111" stroke-width="2"/></g><text x="271" y="186.5" font-size="15" text-anchor="start" fill="#111" font-style="italic" font-family="'Times New Roman',serif">Rx</text><polyline points="110,125 185,125" fill="none" stroke="#111" stroke-width="2"/><polyline points="215,125 290,125" fill="none" stroke="#111" stroke-width="2"/><g transform="translate(200,125) rotate(0)"><circle r="15" fill="#fff" stroke="#111" stroke-width="2"/></g><text x="200" y="131" font-size="17" text-anchor="middle" fill="#111" font-family="'Times New Roman',serif">G</text><polyline points="200,30 200,10 30,10" fill="none" stroke="#111" stroke-width="2"/><polyline points="30,10 30,119" fill="none" stroke="#111" stroke-width="2"/><polyline points="30,131 30,240" fill="none" stroke="#111" stroke-width="2"/><g transform="translate(30,125) rotate(90)"><line x1="-6" y1="-14" x2="-6" y2="14" stroke="#111" stroke-width="2"/><line x1="6" y1="-7" x2="6" y2="7" stroke="#111" stroke-width="4"/></g><text x="16" y="124" font-size="15" text-anchor="middle" fill="#555" font-family="'Times New Roman',serif">+</text><text x="14" y="130" font-size="15" text-anchor="end" fill="#111" font-style="italic" font-family="'Times New Roman',serif">E</text><polyline points="30,240 200,240 200,220" fill="none" stroke="#111" stroke-width="2"/><circle cx="200" cy="30" r="3.2" fill="#111"/><circle cx="110" cy="125" r="3.2" fill="#111"/><circle cx="290" cy="125" r="3.2" fill="#111"/><circle cx="200" cy="220" r="3.2" fill="#111"/><text x="214" y="32" font-size="16" text-anchor="start" fill="#111" font-style="italic" font-family="'Times New Roman',serif">a</text><text x="98" y="130" font-size="16" text-anchor="end" fill="#111" font-style="italic" font-family="'Times New Roman',serif">b</text><text x="302" y="130" font-size="16" text-anchor="start" fill="#111" font-style="italic" font-family="'Times New Roman',serif">c</text><text x="214" y="226" font-size="16" text-anchor="start" fill="#111" font-style="italic" font-family="'Times New Roman',serif">d</text></svg>