<svg xmlns="http://www.w3.org/2000/svg" viewBox="-40 -8 380 166" width="570" height="249" style="background:#fff"><polyline points="40,140 40,96" fill="none" stroke="#111" stroke-width="2"/><polyline points="40,84 40,40" fill="none" stroke="#111" stroke-width="2"/><g transform="translate(40,90) rotate(-90)"><line x1="6" y1="-14" x2="6" y2="14" stroke="#111" stroke-width="2"/><line x1="-6" y1="-7" x2="-6" y2="7" stroke="#111" stroke-width="4"/></g><text x="26" y="89" font-size="15" text-anchor="middle" fill="#555" font-family="'Times New Roman',serif">+</text><text x="24" y="95" font-size="15" text-anchor="end" fill="#111" font-family="'Times New Roman',serif">110V</text><polyline points="40,40 65,40" fill="none" stroke="#111" stroke-width="2"/><polyline points="95,40 120,40" fill="none" stroke="#111" stroke-width="2"/><g transform="translate(80,40) rotate(0)"><circle r="15" fill="#fff" stroke="#111" stroke-width="2"/></g><text x="80" y="46" font-size="17" text-anchor="middle" fill="#111" font-family="'Times New Roman',serif">A</text><text x="66" y="30" font-size="15" text-anchor="middle" fill="#555" font-family="'Times New Roman',serif">+</text><text x="96" y="30" font-size="15" text-anchor="middle" fill="#555" font-family="'Times New Roman',serif">−</text><polyline points="120,40 173,40" fill="none" stroke="#111" stroke-width="2"/><polyline points="217,40 270,40" fill="none" stroke="#111" stroke-width="2"/><g transform="translate(195,40) rotate(0)"><polyline points="-22,0 -18,-6 -11,6 -4,-6 3,6 10,-6 17,6 22,0" fill="none" stroke="#111" stroke-width="2"/></g><text x="195" y="24" font-size="15" text-anchor="middle" fill="#111" font-family="'Times New Roman',serif">棕棕黑橙 綠</text><polyline points="270,40 270,140 40,140" fill="none" stroke="#111" stroke-width="2"/></svg>