<svg xmlns="http://www.w3.org/2000/svg" viewBox="-40 -8 410 246" width="615" height="369" style="background:#fff"><polyline points="50,120 50,159" fill="none" stroke="#111" stroke-width="2"/><polyline points="50,171 50,210" fill="none" stroke="#111" stroke-width="2"/><g transform="translate(50,165) rotate(90)"><line x1="-6" y1="-14" x2="-6" y2="14" stroke="#111" stroke-width="2"/><line x1="6" y1="-7" x2="6" y2="7" stroke="#111" stroke-width="4"/></g><text x="36" y="164" font-size="15" text-anchor="middle" fill="#555" font-family="'Times New Roman',serif">+</text><text x="28" y="170" font-size="15" text-anchor="end" fill="#111" font-family="'Times New Roman',serif">4V</text><line x1="70" y1="195" x2="70" y2="160" stroke="#666" stroke-width="1.6"/><polygon points="70,160 72.72592839616055,166.4474269580202 67.27407160383945,166.4474269580202" fill="#666"/><text x="80" y="182" font-size="15" text-anchor="start" fill="#444" font-style="italic" font-family="'Times New Roman',serif">I</text><polyline points="50,120 50,40" fill="none" stroke="#111" stroke-width="2"/><polyline points="50,40 160,40" fill="none" stroke="#111" stroke-width="2"/><polyline points="190,40 300,40" fill="none" stroke="#111" stroke-width="2"/><g transform="translate(175,40) rotate(0)"><circle r="15" fill="#fff" stroke="#111" stroke-width="2"/><line x1="-9" y1="0" x2="8" y2="0" stroke="#111" stroke-width="2"/><polygon points="10,0 3,-5 3,5" fill="#111"/></g><text x="175" y="24" font-size="15" text-anchor="middle" fill="#111" font-family="'Times New Roman',serif">4A</text><polyline points="300,40 300,120" fill="none" stroke="#111" stroke-width="2"/><polyline points="50,120 88,120" fill="none" stroke="#111" stroke-width="2"/><polyline points="132,120 170,120" fill="none" stroke="#111" stroke-width="2"/><g transform="translate(110,120) rotate(0)"><polyline points="-22,0 -18,-6 -11,6 -4,-6 3,6 10,-6 17,6 22,0" fill="none" stroke="#111" stroke-width="2"/></g><text x="110" y="108" font-size="15" text-anchor="middle" fill="#111" font-family="'Times New Roman',serif">1Ω</text><polyline points="170,120 213,120" fill="none" stroke="#111" stroke-width="2"/><polyline points="257,120 300,120" fill="none" stroke="#111" stroke-width="2"/><g transform="translate(235,120) rotate(0)"><polyline points="-22,0 -18,-6 -11,6 -4,-6 3,6 10,-6 17,6 22,0" fill="none" stroke="#111" stroke-width="2"/></g><text x="235" y="108" font-size="15" text-anchor="middle" fill="#111" font-family="'Times New Roman',serif">2Ω</text><polyline points="170,120 170,143" fill="none" stroke="#111" stroke-width="2"/><polyline points="170,187 170,210" fill="none" stroke="#111" stroke-width="2"/><g transform="translate(170,165) rotate(90)"><polyline points="-22,0 -18,-6 -11,6 -4,-6 3,6 10,-6 17,6 22,0" fill="none" stroke="#111" stroke-width="2"/></g><text x="190" y="170" font-size="15" text-anchor="start" fill="#111" font-family="'Times New Roman',serif">4Ω</text><polyline points="300,210 300,180" fill="none" stroke="#111" stroke-width="2"/><polyline points="300,150 300,120" fill="none" stroke="#111" stroke-width="2"/><g transform="translate(300,165) rotate(-90)"><circle r="15" fill="#fff" stroke="#111" stroke-width="2"/><line x1="-9" y1="0" x2="8" y2="0" stroke="#111" stroke-width="2"/><polygon points="10,0 3,-5 3,5" fill="#111"/></g><text x="320" y="170" font-size="15" text-anchor="start" fill="#111" font-family="'Times New Roman',serif">2A</text><polyline points="50,210 300,210" fill="none" stroke="#111" stroke-width="2"/><circle cx="50" cy="120" r="3.2" fill="#111"/><circle cx="170" cy="120" r="3.2" fill="#111"/><circle cx="300" cy="120" r="3.2" fill="#111"/><circle cx="170" cy="210" r="3.2" fill="#111"/></svg>