<svg xmlns="http://www.w3.org/2000/svg" viewBox="-40 -8 400 236" width="600" height="354" style="background:#fff"><polyline points="50,110 50,85" fill="none" stroke="#111" stroke-width="2"/><polyline points="50,55 50,30" fill="none" stroke="#111" stroke-width="2"/><g transform="translate(50,70) rotate(-90)"><circle r="15" fill="#fff" stroke="#111" stroke-width="2"/><line x1="-9" y1="0" x2="8" y2="0" stroke="#111" stroke-width="2"/><polygon points="10,0 3,-5 3,5" fill="#111"/></g><text x="28" y="75" font-size="15" text-anchor="end" fill="#111" font-family="'Times New Roman',serif">2A</text><polyline points="50,30 280,30" fill="none" stroke="#111" stroke-width="2"/><polyline points="170,30 170,48" fill="none" stroke="#111" stroke-width="2"/><polyline points="170,92 170,110" fill="none" stroke="#111" stroke-width="2"/><g transform="translate(170,70) rotate(90)"><polyline points="-22,0 -18,-6 -11,6 -4,-6 3,6 10,-6 17,6 22,0" fill="none" stroke="#111" stroke-width="2"/></g><text x="190" y="75" font-size="15" text-anchor="start" fill="#111" font-family="'Times New Roman',serif">3Ω</text><polyline points="50,110 88,110" fill="none" stroke="#111" stroke-width="2"/><polyline points="132,110 170,110" fill="none" stroke="#111" stroke-width="2"/><g transform="translate(110,110) rotate(0)"><polyline points="-22,0 -18,-6 -11,6 -4,-6 3,6 10,-6 17,6 22,0" fill="none" stroke="#111" stroke-width="2"/></g><text x="110" y="98" font-size="15" text-anchor="middle" fill="#111" font-family="'Times New Roman',serif">6Ω</text><polyline points="170,110 170,146.5" fill="none" stroke="#111" stroke-width="2"/><polyline points="170,158.5 170,195" fill="none" stroke="#111" stroke-width="2"/><g transform="translate(170,152.5) rotate(90)"><line x1="-6" y1="-14" x2="-6" y2="14" stroke="#111" stroke-width="2"/><line x1="6" y1="-7" x2="6" y2="7" stroke="#111" stroke-width="4"/></g><text x="156" y="151.5" font-size="15" text-anchor="middle" fill="#555" font-family="'Times New Roman',serif">+</text><text x="190" y="157.5" font-size="15" text-anchor="start" fill="#111" font-family="'Times New Roman',serif">4V</text><polyline points="50,110 50,130.5" fill="none" stroke="#111" stroke-width="2"/><polyline points="50,174.5 50,195" fill="none" stroke="#111" stroke-width="2"/><g transform="translate(50,152.5) rotate(90)"><polyline points="-22,0 -18,-6 -11,6 -4,-6 3,6 10,-6 17,6 22,0" fill="none" stroke="#111" stroke-width="2"/></g><text x="38" y="157.5" font-size="15" text-anchor="end" fill="#111" font-family="'Times New Roman',serif">3Ω</text><polyline points="280,30 280,90.5" fill="none" stroke="#111" stroke-width="2"/><polyline points="280,134.5 280,195" fill="none" stroke="#111" stroke-width="2"/><g transform="translate(280,112.5) rotate(90)"><polyline points="-22,0 -18,-6 -11,6 -4,-6 3,6 10,-6 17,6 22,0" fill="none" stroke="#111" stroke-width="2"/></g><text x="300" y="117.5" font-size="15" text-anchor="start" fill="#111" font-family="'Times New Roman',serif">6Ω</text><polyline points="50,195 280,195" fill="none" stroke="#111" stroke-width="2"/><circle cx="170" cy="30" r="3.2" fill="#111"/><circle cx="50" cy="110" r="3.2" fill="#111"/><circle cx="170" cy="110" r="3.2" fill="#111"/><circle cx="170" cy="195" r="3.2" fill="#111"/></svg>