<svg xmlns="http://www.w3.org/2000/svg" viewBox="-40 -8 380 236" width="570" height="354" style="background:#fff"><polyline points="50,40 50,55.5" fill="none" stroke="#111" stroke-width="2"/><polyline points="50,99.5 50,115" fill="none" stroke="#111" stroke-width="2"/><g transform="translate(50,77.5) rotate(90)"><polyline points="-22,0 -18,-6 -11,6 -4,-6 3,6 10,-6 17,6 22,0" fill="none" stroke="#111" stroke-width="2"/></g><text x="38" y="82.5" font-size="15" text-anchor="end" fill="#111" font-family="'Times New Roman',serif">6Ω</text><polyline points="50,195 50,170" fill="none" stroke="#111" stroke-width="2"/><polyline points="50,140 50,115" fill="none" stroke="#111" stroke-width="2"/><g transform="translate(50,155) rotate(-90)"><circle r="15" fill="#fff" stroke="#111" stroke-width="2"/><line x1="-9" y1="0" x2="8" y2="0" stroke="#111" stroke-width="2"/><polygon points="10,0 3,-5 3,5" fill="#111"/></g><text x="28" y="160" font-size="15" text-anchor="end" fill="#111" font-family="'Times New Roman',serif">2A</text><polyline points="50,40 260,40" fill="none" stroke="#111" stroke-width="2"/><circle cx="260" cy="40" r="4" fill="#fff" stroke="#111" stroke-width="1.6"/><text x="272" y="45" font-size="16" text-anchor="middle" fill="#111" font-style="italic" font-family="'Times New Roman',serif">a</text><polyline points="170,40 170,55.5" fill="none" stroke="#111" stroke-width="2"/><polyline points="170,99.5 170,115" fill="none" stroke="#111" stroke-width="2"/><g transform="translate(170,77.5) rotate(90)"><polyline points="-22,0 -18,-6 -11,6 -4,-6 3,6 10,-6 17,6 22,0" fill="none" stroke="#111" stroke-width="2"/></g><text x="190" y="82.5" font-size="15" text-anchor="start" fill="#111" font-family="'Times New Roman',serif">3Ω</text><polyline points="170,115 170,149" fill="none" stroke="#111" stroke-width="2"/><polyline points="170,161 170,195" fill="none" stroke="#111" stroke-width="2"/><g transform="translate(170,155) rotate(90)"><line x1="-6" y1="-14" x2="-6" y2="14" stroke="#111" stroke-width="2"/><line x1="6" y1="-7" x2="6" y2="7" stroke="#111" stroke-width="4"/></g><text x="156" y="154" font-size="15" text-anchor="middle" fill="#555" font-family="'Times New Roman',serif">+</text><text x="190" y="160" font-size="15" text-anchor="start" fill="#111" font-family="'Times New Roman',serif">12V</text><polyline points="50,195 260,195" fill="none" stroke="#111" stroke-width="2"/><circle cx="260" cy="195" r="4" fill="#fff" stroke="#111" stroke-width="1.6"/><text x="272" y="200" font-size="16" text-anchor="middle" fill="#111" font-style="italic" font-family="'Times New Roman',serif">b</text><circle cx="170" cy="40" r="3.2" fill="#111"/><circle cx="170" cy="195" r="3.2" fill="#111"/></svg>