<svg xmlns="http://www.w3.org/2000/svg" viewBox="-40 -8 400 246" width="600" height="369" style="background:#fff"><polyline points="40,40 40,116.5" fill="none" stroke="#111" stroke-width="2"/><polyline points="40,128.5 40,205" fill="none" stroke="#111" stroke-width="2"/><g transform="translate(40,122.5) rotate(90)"><line x1="-6" y1="-14" x2="-6" y2="14" stroke="#111" stroke-width="2"/><line x1="6" y1="-7" x2="6" y2="7" stroke="#111" stroke-width="4"/></g><text x="26" y="121.5" font-size="15" text-anchor="middle" fill="#555" font-family="'Times New Roman',serif">+</text><text x="18" y="127.5" font-size="15" text-anchor="end" fill="#111" font-family="'Times New Roman',serif">20V</text><polyline points="40,40 280,40" fill="none" stroke="#111" stroke-width="2"/><line x1="70" y1="28" x2="105" y2="28" stroke="#666" stroke-width="1.6"/><polygon points="105,28 98.5525730419798,30.725928396160555 98.5525730419798,25.274071603839445" fill="#666"/><text x="88" y="22" font-size="15" text-anchor="middle" fill="#444" font-style="italic" font-family="'Times New Roman',serif">I</text><circle cx="160" cy="40" r="3.2" fill="#111"/><polyline points="160,40 160,58" fill="none" stroke="#111" stroke-width="2"/><polyline points="160,102 160,120" fill="none" stroke="#111" stroke-width="2"/><g transform="translate(160,80) rotate(90)"><polyline points="-22,0 -18,-6 -11,6 -4,-6 3,6 10,-6 17,6 22,0" fill="none" stroke="#111" stroke-width="2"/></g><text x="148" y="85" font-size="15" text-anchor="end" fill="#111" font-family="'Times New Roman',serif">12Ω</text><polyline points="280,40 280,58" fill="none" stroke="#111" stroke-width="2"/><polyline points="280,102 280,120" fill="none" stroke="#111" stroke-width="2"/><g transform="translate(280,80) rotate(90)"><polyline points="-22,0 -18,-6 -11,6 -4,-6 3,6 10,-6 17,6 22,0" fill="none" stroke="#111" stroke-width="2"/></g><text x="300" y="85" font-size="15" text-anchor="start" fill="#111" font-family="'Times New Roman',serif">12Ω</text><polyline points="160,120 198,120" fill="none" stroke="#111" stroke-width="2"/><polyline points="242,120 280,120" fill="none" stroke="#111" stroke-width="2"/><g transform="translate(220,120) rotate(0)"><polyline points="-22,0 -18,-6 -11,6 -4,-6 3,6 10,-6 17,6 22,0" fill="none" stroke="#111" stroke-width="2"/></g><text x="220" y="108" font-size="15" text-anchor="middle" fill="#111" font-family="'Times New Roman',serif">12Ω</text><polyline points="160,120 160,140.5" fill="none" stroke="#111" stroke-width="2"/><polyline points="160,184.5 160,205" fill="none" stroke="#111" stroke-width="2"/><g transform="translate(160,162.5) rotate(90)"><polyline points="-22,0 -18,-6 -11,6 -4,-6 3,6 10,-6 17,6 22,0" fill="none" stroke="#111" stroke-width="2"/></g><text x="148" y="167.5" font-size="15" text-anchor="end" fill="#111" font-family="'Times New Roman',serif">6Ω</text><polyline points="280,120 280,140.5" fill="none" stroke="#111" stroke-width="2"/><polyline points="280,184.5 280,205" fill="none" stroke="#111" stroke-width="2"/><g transform="translate(280,162.5) rotate(90)"><polyline points="-22,0 -18,-6 -11,6 -4,-6 3,6 10,-6 17,6 22,0" fill="none" stroke="#111" stroke-width="2"/></g><text x="300" y="167.5" font-size="15" text-anchor="start" fill="#111" font-family="'Times New Roman',serif">11Ω</text><polyline points="40,205 280,205" fill="none" stroke="#111" stroke-width="2"/><circle cx="160" cy="120" r="3.2" fill="#111"/><circle cx="280" cy="120" r="3.2" fill="#111"/><circle cx="160" cy="205" r="3.2" fill="#111"/></svg>