<svg xmlns="http://www.w3.org/2000/svg" viewBox="-40 -8 380 186" width="570" height="279" style="background:#fff"><circle cx="20" cy="50" r="4" fill="#fff" stroke="#111" stroke-width="1.6"/><text x="10" y="55" font-size="16" text-anchor="middle" fill="#111" font-style="italic" font-family="'Times New Roman',serif">a</text><polyline points="20,50 60,50" fill="none" stroke="#111" stroke-width="2"/><rect x="60" y="36" width="160" height="28" rx="14" fill="#e9dcc0" stroke="#111" stroke-width="1.5"/><rect x="86" y="36" width="11" height="28" fill="#f80" stroke="#555" stroke-width="0.6"/><text x="91" y="30" font-size="13" text-anchor="middle" fill="#111" font-family="'Times New Roman',serif">橙</text><rect x="106" y="36" width="11" height="28" fill="#fff" stroke="#555" stroke-width="0.6"/><text x="111" y="30" font-size="13" text-anchor="middle" fill="#111" font-family="'Times New Roman',serif">白</text><rect x="126" y="36" width="11" height="28" fill="#111" stroke="#555" stroke-width="0.6"/><text x="131" y="30" font-size="13" text-anchor="middle" fill="#111" font-family="'Times New Roman',serif">黑</text><rect x="146" y="36" width="11" height="28" fill="#c9a227" stroke="#555" stroke-width="0.6"/><text x="151" y="30" font-size="13" text-anchor="middle" fill="#111" font-family="'Times New Roman',serif">金</text><rect x="190" y="36" width="11" height="28" fill="#81c" stroke="#555" stroke-width="0.6"/><text x="195" y="30" font-size="13" text-anchor="middle" fill="#111" font-family="'Times New Roman',serif">紫</text><text x="140" y="82" font-size="15" text-anchor="middle" fill="#111" font-style="italic" font-family="'Times New Roman',serif">R1</text><polyline points="220,50 270,50 270,130 220,130" fill="none" stroke="#111" stroke-width="2"/><rect x="60" y="116" width="160" height="28" rx="14" fill="#e9dcc0" stroke="#111" stroke-width="1.5"/><rect x="86" y="116" width="11" height="28" fill="#aaa" stroke="#555" stroke-width="0.6"/><text x="91" y="110" font-size="13" text-anchor="middle" fill="#111" font-family="'Times New Roman',serif">?</text><rect x="106" y="116" width="11" height="28" fill="#aaa" stroke="#555" stroke-width="0.6"/><text x="111" y="110" font-size="13" text-anchor="middle" fill="#111" font-family="'Times New Roman',serif">?</text><rect x="126" y="116" width="11" height="28" fill="#aaa" stroke="#555" stroke-width="0.6"/><text x="131" y="110" font-size="13" text-anchor="middle" fill="#111" font-family="'Times New Roman',serif">?</text><rect x="146" y="116" width="11" height="28" fill="#aaa" stroke="#555" stroke-width="0.6"/><text x="151" y="110" font-size="13" text-anchor="middle" fill="#111" font-family="'Times New Roman',serif">?</text><rect x="190" y="116" width="11" height="28" fill="#aaa" stroke="#555" stroke-width="0.6"/><text x="195" y="110" font-size="13" text-anchor="middle" fill="#111" font-family="'Times New Roman',serif">?</text><text x="140" y="162" font-size="15" text-anchor="middle" fill="#111" font-style="italic" font-family="'Times New Roman',serif">R2</text><polyline points="60,130 20,130" fill="none" stroke="#111" stroke-width="2"/><circle cx="20" cy="130" r="4" fill="#fff" stroke="#111" stroke-width="1.6"/><text x="10" y="135" font-size="16" text-anchor="middle" fill="#111" font-style="italic" font-family="'Times New Roman',serif">b</text></svg>